
<svg width="65px" height="41px" viewBox="0 0 65 41" version="1.1" xmlns="http://www.w3.org/2000/svg" xmlns:xlink="http://www.w3.org/1999/xlink">
    <!-- Generator: Sketch 49.2 (51160) - http://www.bohemiancoding.com/sketch -->
    <desc>Created with Sketch.</desc>
    <defs></defs>
    <g id="Page-1" stroke="none" stroke-width="1" fill="none" fill-rule="evenodd">
        <g id="Desktop-1440" transform="translate(-967.000000, -750.000000)">
            <g id="Best-Dating-Sites" transform="translate(950.000000, 500.000000)">
                <g id="Charmerly" transform="translate(0.000000, 240.000000)">
                    <g id="charmerly-logo" transform="translate(17.000000, 10.000000)">
                        <g id="Group-3" transform="translate(20.392157, 0.000000)" fill="#E8553A">
                            <path d="M21.2766212,6.51304325 C21.2824039,7.61968143 20.691357,10.0936474 16.8115088,14.5043823 L16.8115088,10.1082485 C15.1257166,9.75903995 13.8550572,8.26334453 13.8550572,6.47623643 C13.8550572,4.43087219 15.5192406,2.76726466 17.5662957,2.76726466 C19.6121335,2.76726466 21.2769256,4.43087219 21.2769256,6.47623643 C21.2769256,6.48840397 21.2760125,6.50057152 21.2760125,6.51273906 L21.2766212,6.51304325 Z M10.4764727,16.5324078 L11.5149134,13.4089991 C10.9466928,13.2194896 10.5352122,12.6841177 10.5352122,12.0526221 C10.5352122,11.2644694 11.1764767,10.6229356 11.9659595,10.6229356 C12.7545292,10.6229356 13.3967068,11.2644694 13.3967068,12.0526221 C13.3967068,12.6841177 12.9855305,13.2194896 12.4167012,13.4089991 L13.4554462,16.5324078 L10.4764727,16.5324078 Z M7.12010579,10.1082485 L7.12010579,14.5043823 C3.24025759,10.0936474 2.64921075,7.61968143 2.65529774,6.51304325 L2.65560209,6.51273906 C2.65560209,6.50057152 2.65499339,6.48840397 2.65499339,6.47623643 C2.65499339,4.43087219 4.31948113,2.76726466 6.36592758,2.76726466 C8.41176532,2.76726466 10.0768618,4.43087219 10.0768618,6.47623643 C10.0768618,8.26334453 8.805898,9.75903995 7.12010579,10.1082485 Z M22.0499735,1.95964389 C20.8499231,0.768745465 19.2572619,0.113219002 17.5662957,0.113219002 C16.0445479,0.113219002 14.5721048,0.658324998 13.4192286,1.64815475 C12.8248339,2.15919162 12.3336138,2.7715233 11.9659595,3.45077647 C11.5983052,2.7715233 11.107085,2.15919162 10.5120816,1.64815475 C9.3598142,0.658324998 7.88737103,0.113219002 6.36592758,0.113219002 C4.67465707,0.113219002 3.08230017,0.768745465 1.88194551,1.95964389 C0.682503889,3.14932556 0.0144566041,4.73475661 0.0007608739,6.41661546 C0.0007608739,6.41661546 -0.00045652434,6.4984422 0.00015217478,6.51030555 C-0.0223696927,12.9892188 11.0568673,22.0747244 11.5289135,22.4586104 L11.9659595,22.8142069 L12.4030055,22.4586104 C12.8750516,22.0747244 23.9542887,12.989523 23.9320711,6.51030555 C23.9323755,6.49905057 23.9314624,6.4181364 23.9314624,6.4181364 C23.9159406,4.73171473 23.2478933,3.14841299 22.0499735,1.95964389 Z" id="Fill-1"></path>
                        </g>
                        <g id="Group-9" transform="translate(0.000000, 31.588235)" fill="#6A3536">
                            <path d="M0.366144302,4.42983288 C0.366144302,1.59144892 1.44597654,0.171800659 3.60594537,0.171800659 C4.52842889,0.171800659 5.38912944,0.275528977 6.18865574,0.482985611 L6.0042199,1.35874463 C5.31243335,1.18991995 4.51290706,1.10535552 3.60594537,1.10535552 C2.11463253,1.10535552 1.36928045,2.21351464 1.36928045,4.42983288 C1.36928045,6.6464553 2.11463253,7.75461443 3.60594537,7.75461443 C4.51290706,7.75461443 5.31243335,7.68160916 6.0042199,7.53559862 L6.18865574,8.38245972 C5.38912944,8.5862661 4.52842889,8.68786509 3.60594537,8.68786509 C1.44597654,8.68786509 0.366144302,7.26882521 0.366144302,4.42983288" id="Fill-4"></path>
                            <polygon id="Fill-6" points="8.49456018 4.95413237 8.49456018 8.68774342 7.49142403 8.68774342 7.49142403 0.171678984 8.49456018 0.171678984 8.49456018 3.9515267 12.4724089 3.9515267 12.4724089 0.171678984 13.4755451 0.171678984 13.4755451 8.68774342 12.4724089 8.68774342 12.4724089 4.95413237"></polygon>
                            <path d="M19.3441655,5.42675022 L17.9721577,1.28948088 L16.6001498,5.42675022 L19.3441655,5.42675022 Z M16.3119308,6.31406841 L15.527622,8.68795635 L14.5016596,8.68795635 L17.2803711,0.505891014 C17.3646759,0.283529137 17.4842853,0.171891916 17.6376775,0.171891916 L18.2838116,0.171891916 C18.4524213,0.171891916 18.5790307,0.283529137 18.6642486,0.505891014 L21.4426557,8.68795635 L20.416389,8.68795635 L19.6323845,6.31406841 L16.3119308,6.31406841 Z" id="Fill-8"></path>
                            <path d="M25.3972521,4.32050749 C26.7963471,4.32050749 27.4960467,3.78270202 27.4960467,2.70709108 C27.4960467,1.64699376 26.7963471,1.11679301 25.3972521,1.11679301 L23.7945474,1.11679301 L23.7945474,4.32050749 L25.3972521,4.32050749 Z M22.7914112,8.71116594 L22.7914112,0.171678984 L25.3972521,0.171678984 C27.4650031,0.171678984 28.4988785,1.0182359 28.4988785,2.71013297 C28.4988785,3.97160315 27.9340057,4.76796894 26.8039558,5.09831777 L28.6604881,8.71116594 L27.5304382,8.71116594 L25.7548629,5.26531732 L25.3972521,5.26531732 L23.7945474,5.26531732 L23.7945474,8.71116594 L22.7914112,8.71116594 Z" id="Fill-10"></path>
                            <path d="M34.0563623,8.71104426 C33.71823,8.71104426 33.4914896,8.59028139 33.3761411,8.34814725 L31.1623024,1.47378876 L31.1623024,8.71104426 L30.1591662,8.71104426 L30.1591662,0.44776057 C30.1591662,0.263726458 30.2169926,0.171861497 30.3323411,0.171861497 L31.3354773,0.171861497 C31.5810874,0.171861497 31.7463492,0.26768091 31.8309584,0.459623926 L34.125754,7.80364963 L36.4086801,0.459623926 C36.4929849,0.26768091 36.6582467,0.171861497 36.9041612,0.171861497 L37.9072973,0.171861497 C38.0226458,0.171861497 38.0804722,0.263726458 38.0804722,0.44776057 L38.0804722,8.71104426 L37.0773361,8.71104426 L37.0773361,1.47378876 L34.8634974,8.34814725 C34.7481489,8.59028139 34.5214085,8.71104426 34.1832761,8.71104426 L34.0563623,8.71104426 Z" id="Fill-12"></path>
                            <path d="M39.5789373,6.87879457 L39.5789373,1.9810537 C39.5941548,0.775250031 40.216854,0.171739822 41.4467305,0.171739822 L44.9172286,0.171739822 L44.9172286,1.05905801 L41.4467305,1.05905801 C40.8702925,1.05905801 40.5820734,1.35898798 40.5820734,1.95823955 L40.5820734,4.03250171 L44.2023115,4.03250171 L44.2023115,4.97731154 L40.5820734,4.97731154 L40.5820734,6.93628622 C40.5820734,7.51272364 40.8702925,7.80048607 41.4467305,7.80048607 L44.9172286,7.80048607 L44.9172286,8.68780425 L41.4467305,8.68780425 C40.216854,8.68780425 39.5941548,8.08490242 39.5789373,6.87879457" id="Fill-14"></path>
                            <path d="M48.7795767,4.32050749 C50.1786716,4.32050749 50.8783712,3.78270202 50.8783712,2.70709108 C50.8783712,1.64699376 50.1786716,1.11679301 48.7795767,1.11679301 L47.1768719,1.11679301 L47.1768719,4.32050749 L48.7795767,4.32050749 Z M46.1737357,8.71116594 L46.1737357,0.171678984 L48.7795767,0.171678984 C50.8473276,0.171678984 51.881203,1.0182359 51.881203,2.71013297 C51.881203,3.97160315 51.3163303,4.76796894 50.1862803,5.09831777 L52.0428127,8.71116594 L50.9127627,8.71116594 L49.1371874,5.26531732 L48.7795767,5.26531732 L47.1768719,5.26531732 L47.1768719,8.71116594 L46.1737357,8.71116594 Z" id="Fill-16"></path>
                            <path d="M54.5446878,0.171800659 L54.5446878,6.78516531 C54.5446878,7.4239614 54.8405156,7.74305526 55.4324754,7.74305526 L58.6491459,7.74305526 L58.6491459,8.68786509 L55.4324754,8.68786509 C54.1715552,8.68786509 53.5415516,8.05332764 53.5415516,6.78394856 L53.5415516,0.171800659 L54.5446878,0.171800659 Z" id="Fill-18"></path>
                            <polygon id="Fill-20" points="59.4680593 0.171800659 61.4743316 4.02069919 61.6356369 4.43591665 61.7969421 4.02069919 63.8032144 0.171800659 64.9792211 0.171800659 62.1314223 5.45008149 62.1314223 8.68786509 61.1282862 8.68786509 61.1282862 5.45008149 58.2804873 0.171800659"></polygon>
                        </g>
                    </g>
                </g>
            </g>
        </g>
    </g>
</svg>
