
<svg width="80px" height="22px" viewBox="0 0 80 22" version="1.1" xmlns="http://www.w3.org/2000/svg" xmlns:xlink="http://www.w3.org/1999/xlink">
    <!-- Generator: Sketch 49.2 (51160) - http://www.bohemiancoding.com/sketch -->
    <desc>Created with Sketch.</desc>
    <defs></defs>
    <g id="Page-1" stroke="none" stroke-width="1" fill="none" fill-rule="evenodd">
        <g id="Desktop-1440" transform="translate(-960.000000, -659.000000)">
            <g id="Best-Dating-Sites" transform="translate(950.000000, 500.000000)">
                <g id="RomanceTale" transform="translate(0.000000, 140.000000)">
                    <g id="RT-logo" transform="translate(10.000000, 19.000000)">
                        <g id="Group-3" transform="translate(0.000000, 2.003664)" fill="#830F29">
                            <path d="M1.70505852,5.32113995 C1.70505852,5.32113995 1.61549109,5.87890076 1.43635623,6.99442239 C1.28979135,7.92266667 1.14729771,8.42750127 1.00887532,8.50892621 C0.951877863,8.54963868 0.882463104,8.56592366 0.80124173,8.55778117 C0.793099237,8.55778117 0.732030534,8.52928244 0.618035623,8.47228499 C0.552692112,8.43971501 0.5203257,8.38271756 0.5203257,8.30129262 C0.5203257,8.27686514 0.508111959,8.24429517 0.483684478,8.2035827 C0.312692112,7.91859542 0.182412214,7.59696692 0.0928447837,7.2386972 C-0.0455776081,6.69315013 -0.0292926209,6.19645802 0.141699746,5.74862087 C0.190554707,5.61019847 0.276050891,5.44755216 0.398188295,5.26007125 C0.77253944,4.66566921 1.04124173,4.26261578 1.20429517,4.05091094 C1.22058015,4.01854453 1.3954402,3.83920611 1.72948601,3.51350636 C2.26689059,2.98424427 2.56002036,2.69946056 2.60887532,2.65854453 C3.17864631,2.18648346 3.59391349,1.87686514 3.85467684,1.73030025 C3.96052926,1.67350636 4.11523664,1.57579644 4.31879898,1.43717048 C4.52215776,1.31503308 4.68113995,1.2213944 4.79513486,1.15625445 C5.06383715,1.00968957 5.65803562,0.781699746 6.57834097,0.472284987 C7.22974046,0.260580153 7.96256489,0.159002545 8.77681425,0.166941476 C9.17579644,0.166941476 9.52979135,0.175083969 9.83940967,0.191368957 C10.0022595,0.19951145 10.3358982,0.268722646 10.8409364,0.399002545 C11.0442952,0.447857506 11.4638372,0.610707379 12.0989517,0.887552163 C12.277883,0.968977099 12.4488753,1.05854453 12.6119288,1.15625445 C12.6687226,1.19696692 12.7462799,1.27432061 12.8439898,1.38831552 C12.8847023,1.43717048 12.9416997,1.51452417 13.0149822,1.62037659 C13.0882646,1.71808651 13.1452621,1.79136896 13.1859746,1.84022392 C13.4383919,2.14149618 13.6134555,2.51605089 13.7111654,2.96388804 C13.7844478,3.28144529 13.7600204,3.7781374 13.637883,4.45396438 C13.6297405,4.47839186 13.5847532,4.57610178 13.5035318,4.74709415 C13.4383919,4.86923155 13.4098931,4.92236132 13.4180356,4.90587277 C13.3936081,5.01172519 13.2958982,5.15421883 13.1249059,5.33335369 C12.7259237,5.74862087 12.4002239,6.03767939 12.1478066,6.20052926 C11.7243969,6.49365903 11.3496387,6.69722137 11.0241425,6.81121628 C10.8775776,6.86821374 10.6658728,6.94963868 10.389028,7.05549109 C10.1121832,7.16968957 9.9084173,7.25091094 9.77834097,7.2997659 C9.63177608,7.34862087 9.30607634,7.45447328 8.80124173,7.61732316 C8.26383715,7.78831552 7.47788295,7.92673791 6.44398982,8.03259033 C6.28113995,8.04887532 5.90251399,8.08958779 5.30811196,8.15472774 C5.26739949,8.30129262 5.24704326,8.38271756 5.24704326,8.39900254 C6.0938626,10.9557455 7.29467684,13.1705038 8.85009669,15.0432774 C9.70505852,16.085313 10.4867379,16.8427684 11.1951349,17.3150331 C11.4638372,17.4939644 11.7404784,17.5998168 12.0256692,17.6325903 C12.4083664,17.6649567 12.6729975,17.6771705 12.8195623,17.6692316 C13.1939135,17.6366616 13.6134555,17.5061781 14.0775776,17.2783919 C14.5091298,17.0664835 14.9325394,16.720631 15.3478066,16.2402239 C15.3559491,16.2402239 15.3923868,16.1870941 15.4577303,16.0814453 C15.5554402,15.9348804 15.7020051,15.8817506 15.8974249,15.9226667 C15.9053639,15.9226667 15.9297913,15.9267379 15.9707074,15.9348804 L15.9707074,16.0081628 C16.0439898,16.1952366 15.9788499,16.4191552 15.7752875,16.6799186 C15.7020051,16.7776285 15.2623104,17.2539644 14.4562036,18.1089262 C14.1793588,18.402056 13.8210891,18.6585445 13.3813944,18.8783919 C13.275542,18.9272468 12.9824122,19.0288244 12.5020051,19.1837354 C12.4610891,19.2000204 12.3147277,19.236458 12.0623104,19.293659 C11.5737608,19.3993079 11.0404275,19.3180865 10.4623104,19.0493842 C8.52439695,17.8035827 6.94047837,15.755542 5.71116539,12.9058728 C5.42597455,12.2463308 4.99462595,10.9028193 4.41650891,8.87533842 C4.23737405,9.1116743 4.14373537,9.23360814 4.13559288,9.24175064 C4.08673791,9.31503308 3.95645802,9.51859542 3.74475318,9.85243766 C3.5900458,10.0967125 3.4597659,10.2962036 3.35391349,10.4509109 C3.26434606,10.5811908 3.00378626,11.0819542 2.5722341,11.953201 C2.54780662,12.002056 2.51116539,12.1119796 2.46231043,12.282972 C2.28317557,12.909944 2.16918066,13.304855 2.1203257,13.4677048 C2.07147074,13.6712672 2.01447328,13.9236845 1.94933333,14.2249567 C1.95727226,14.1925903 1.94526209,14.3185954 1.91269211,14.6035827 C1.91269211,14.6117252 1.90454962,14.6850076 1.88826463,14.82343 C1.69284478,14.839715 1.49315013,14.8032774 1.28979135,14.7135064 C1.23279389,14.6890789 1.17986768,14.6198677 1.13101272,14.5058728 C0.927450382,14.0906056 0.793099237,13.5654148 0.727959288,12.9303003 C0.687246819,12.5231756 0.670961832,12.0631247 0.679104326,11.5501476 C0.695389313,11.077883 0.870249364,10.6096896 1.20429517,10.1455674 C1.35879898,9.9338626 1.58292112,9.64480407 1.87605089,9.27839186 C2.20989313,8.87126718 2.4419542,8.58220865 2.5722341,8.41121628 C2.74322646,8.18343003 3.06485496,7.74353181 3.53711959,7.09213232 C3.63482952,6.95370992 3.77732316,6.75014758 3.96460051,6.48144529 C4.16816285,6.20460051 4.31452417,5.99696692 4.40429517,5.85854453 C4.76256489,5.36999491 5.0597659,4.84887532 5.29589822,4.29518575 C5.31218321,4.25447328 5.35269211,4.16083461 5.41803562,4.01426972 C5.47503308,3.90027481 5.51574555,3.80663613 5.54017303,3.73335369 C5.67859542,3.35879898 5.69080916,3.02495674 5.57681425,2.73182697 C5.53589822,2.62597455 5.54424427,2.54454962 5.60124173,2.48755216 C5.65009669,2.42241221 5.73559288,2.40205598 5.85773028,2.42648346 C6.02058015,2.45905344 6.216,2.5689771 6.44398982,2.75625445 C6.75340458,3.00052926 6.87554198,3.33844275 6.81040204,3.76999491 C6.68826463,4.54353181 6.48877354,5.21935878 6.21192875,5.79747583 C6.17101272,5.88704326 6.12236132,6.00918066 6.06536387,6.16388804 C5.99208142,6.32673791 5.93895165,6.44480407 5.90658524,6.51808651 C5.88215776,6.57508397 5.84551654,6.64836641 5.79666158,6.73793384 C5.73966412,6.84378626 5.7030229,6.9170687 5.68673791,6.95778117 L5.65009669,7.09213232 L5.8333028,7.09213232 C6.77783206,6.90485496 7.33559288,6.79086005 7.50658524,6.75014758 C8.14169975,6.6035827 8.67482952,6.38780662 9.10658524,6.10281934 C9.22058015,6.0295369 9.37528753,5.91554198 9.57070738,5.76083461 C9.79055471,5.58984224 9.94933333,5.47177608 10.0470433,5.40663613 C10.3157455,5.21935878 10.5966616,4.88144529 10.8897913,4.39289567 C11.1014962,4.03462595 11.2195623,3.68042748 11.2439898,3.33030025 C11.2684173,3.04531298 11.2641425,2.8213944 11.2317761,2.65854453 C11.1829211,2.38984224 11.0565089,2.14963868 10.8531501,1.93793384 C10.6984427,1.76694148 10.6088753,1.66923155 10.5844478,1.64480407 C10.299257,1.37610178 9.90454962,1.20510941 9.39971501,1.13182697 C8.8213944,1.0506056 8.37783206,1.02597455 8.0684173,1.05854453 C6.77376081,1.21325191 6.00429517,1.33131807 5.76002036,1.412743 C4.26180153,1.90129262 3.10149618,2.86617812 2.27910433,4.30739949 C1.89620356,4.98322646 1.70505852,5.32113995 1.70505852,5.32113995" id="Fill-1"></path>
                        </g>
                        <path d="M16.9842646,11.843827 C17.0410585,11.794972 17.1267583,11.8481018 17.2407532,12.0026056 C17.2814656,12.0679491 17.2122545,12.2877964 17.0331196,12.6621476 C16.8132723,13.1183308 16.5160712,13.4766005 16.1415165,13.7369567 C15.6120509,14.09543 15.0952061,14.2664224 14.5903715,14.2499338 C14.2728142,14.7384835 13.8494046,15.2351756 13.3201425,15.7400102 C12.5873181,16.4404682 11.976631,16.8311043 11.4880814,16.9125293 C11.0728142,16.9858117 10.6575471,16.9369567 10.2422799,16.7659644 C9.63159288,16.5137506 9.28960814,16.1797048 9.2163257,15.7644377 C9.12675827,15.2679491 9.16360305,14.6896285 9.32624936,14.0300865 C9.52166921,13.2321221 9.86772519,12.5277964 10.3644173,11.9171094 C11.5776489,10.4353791 12.5384631,9.63313995 13.2468601,9.51100254 C13.7922036,9.41329262 14.1995318,9.64535369 14.4682341,10.2071858 C14.5578015,10.3946667 14.6188702,10.5900865 14.6514402,10.7934453 C14.6840102,10.9809262 14.6880814,11.0702901 14.6636539,11.0621476 C14.0611094,10.8099338 13.4341374,10.9564987 12.7827379,11.5018422 C12.2616183,11.933598 11.7812112,12.5644377 11.3415165,13.394972 C10.9669618,14.2010789 10.7430433,14.9056081 10.6697608,15.5079491 C10.6288448,15.8580763 10.7674707,16.0819949 11.085028,16.1797048 C11.3293028,16.2529873 11.5570891,16.2491196 11.7689975,16.1674911 C12.2168346,16.0046412 12.7990229,15.4877964 13.5155623,14.6163461 C13.6376997,14.4697812 13.7516947,14.3232163 13.8575471,14.1766514 C13.5237048,14.111715 13.3036539,13.8835216 13.1980051,13.4926819 C13.1328651,13.2160407 13.2142901,12.9308499 13.4422799,12.6377201 C13.6784122,12.3366514 13.9511858,12.1778728 14.2606005,12.1613842 C14.5781578,12.1534453 14.805944,12.2957354 14.94457,12.5888651 L14.94457,12.6010789 C14.960855,12.6336489 14.9771399,12.6664224 14.9934249,12.6987888 C15.0097099,12.7397048 15.0219237,12.784285 15.0300662,12.8331399 C15.0380051,12.890341 15.0422799,12.9106972 15.0422799,12.8942087 C15.0504224,12.9512061 15.0544936,13.0163461 15.0544936,13.0896285 L15.0544936,13.1751247 C15.0544936,13.2484071 15.0463511,13.3094758 15.0300662,13.3583308 L15.0300662,13.3705445 C15.0135776,13.4766005 14.9934249,13.5580254 14.9689975,13.6148193 L14.9567837,13.6270331 L14.9567837,13.6392468 C15.192916,13.6229618 15.3883359,13.5865242 15.5430433,13.5293232 C15.885028,13.3992468 16.1700153,13.1427583 16.3980051,12.7598575 C16.7723562,12.165659 16.9677761,11.8603155 16.9842646,11.843827" id="Fill-4" fill="#830F29"></path>
                        <path d="M26.7551552,11.9293028 C26.8691501,11.7503715 26.9912875,11.6606005 27.1215674,11.6606005 C27.2516438,11.6526616 27.2803461,11.7666565 27.2070636,12.0025852 C26.9383613,12.8007532 26.2625344,13.7778524 25.1795827,14.933883 C25.1142392,14.9992265 24.9515929,15.1781578 24.6910331,15.4712875 C24.4956132,15.6831959 24.3409059,15.8458422 24.2269109,15.9598372 C23.9419237,16.2368855 23.6813639,16.4648753 23.4452316,16.6438066 C23.2498117,16.798514 23.0869618,16.8880814 22.9566819,16.9125089 C22.3134249,17.0346463 21.9063003,16.8312875 21.7353079,16.3018219 C21.6294555,15.9842646 21.6131705,15.6178524 21.6864529,15.2025852 C21.7678779,14.7873181 22.3744936,13.7167837 23.5063003,11.9903715 C23.3923053,12.0392265 23.2131705,12.1613639 22.9688957,12.3567837 C22.7246209,12.5522036 22.4437048,12.7924071 22.1261476,13.0773944 C21.8004478,13.3705242 21.4666056,13.6801425 21.1246209,14.0056387 C20.7826361,14.3396845 20.4569364,14.6611094 20.1475216,14.9705242 C20.0172417,15.1010076 19.8055369,15.4102188 19.5124071,15.8987684 C19.1704224,16.4606005 19.015715,16.7170891 19.048285,16.6682341 C18.9017201,16.8636539 18.7753079,16.9452824 18.669659,16.9125089 C18.5638066,16.8717964 18.4821781,16.7863003 18.4253842,16.6560204 C18.1403969,15.9720509 18.026402,15.585486 18.0833995,15.495715 C18.124112,15.4307786 18.2055369,15.3167837 18.3276743,15.1537303 C18.4498117,14.9827379 18.5963766,14.7751043 18.767369,14.5308295 C19.5734758,13.374799 20.1066056,12.5969873 20.367369,12.1980051 C20.5139338,11.9863003 20.6317964,11.8030941 20.7215674,11.6483868 C20.2411603,12.055715 19.7322545,12.5114911 19.1948499,13.0163257 C19.1704224,13.0407532 18.3358168,13.985486 16.6910331,15.8499135 C16.3325598,16.2651807 16.0762748,16.5908804 15.9215674,16.8270127 C15.86457,16.9247226 15.783145,16.9572926 15.6772926,16.9247226 C15.5714402,16.8923562 15.4737303,16.8270127 15.3841628,16.7293028 C15.3678779,16.7130178 15.3515929,16.6885903 15.3353079,16.6560204 C15.0014656,16.3384631 14.7816183,15.9964784 14.6757659,15.6300662 C14.667827,15.5893537 15.5264529,14.1481323 17.2528651,11.306402 C17.7737812,10.4514402 18.2055369,9.71474809 18.5475216,9.09571501 C18.8730178,9.22619847 19.0889975,9.6373944 19.1948499,10.3293028 C19.2681323,10.8178524 18.9829415,11.5468092 18.339888,12.5155623 C18.2340356,12.7109822 18.0996845,12.9473181 17.9368346,13.2239593 C17.7658422,13.5091501 17.6638575,13.6801425 17.6314911,13.7369364 C17.7859949,13.549659 17.9814148,13.3137303 18.2177506,13.0285394 C18.453883,12.7518982 18.6981578,12.4667074 18.9505751,12.1735776 C19.1867074,11.8969364 19.4431959,11.6038066 19.7200407,11.2941883 C19.9806005,11.0010585 20.228743,10.7407023 20.4650789,10.5125089 C20.7012112,10.2763766 20.9127125,10.0809567 21.1001934,9.92624936 C21.2874707,9.76339949 21.4299644,9.66976081 21.5276743,9.64533333 C21.6742392,9.61296692 21.8085903,9.64533333 21.9307277,9.74304326 C22.0608041,9.84075318 22.1627888,9.97103308 22.2360712,10.133883 C22.3093537,10.2885903 22.3622799,10.4475725 22.3948499,10.6102188 C22.4192774,10.7649262 22.4152061,10.8870636 22.3826361,10.976631 C22.3417201,11.0582595 22.2238575,11.2536794 22.0284377,11.5628906 C21.8248753,11.8725089 21.6090992,12.1980051 21.3811094,12.5399898 C21.1042646,12.9473181 20.8029924,13.3827379 20.4772926,13.8468601 C21.1938321,13.0488957 21.8531705,12.3160712 22.4559186,11.6483868 C22.7083359,11.3796845 22.9607532,11.1109822 23.2131705,10.8422799 C23.4493028,10.5900662 23.6813639,10.3457913 23.9093537,10.1094555 C24.1210585,9.88960814 24.3042646,9.71067684 24.458972,9.57205089 C24.6136794,9.42548601 24.7195318,9.33998982 24.7765293,9.31556234 C24.9066056,9.26670738 25.0330178,9.29113486 25.1551552,9.38884478 C25.2772926,9.47861578 25.383145,9.60075318 25.4727125,9.755257 C25.5541374,9.91016794 25.6027888,10.0728142 25.6192774,10.2438066 C25.6272163,10.423145 25.5905751,10.5735776 25.5093537,10.695715 C25.4195827,10.8015674 25.2813639,10.9931196 25.0940865,11.2697608 C24.9066056,11.5384631 24.7032468,11.8480814 24.4833995,12.1980051 C24.2554097,12.5483359 24.0274198,12.9106768 23.79943,13.285028 C23.5714402,13.6679288 23.3719491,14.0259949 23.2009567,14.3598372 C23.0299644,14.6857405 22.8956132,14.9664529 22.7979033,15.2025852 C22.7164784,15.4063511 22.6839084,15.5812112 22.7001934,15.7277761 C22.7246209,15.964112 22.8182595,16.0414656 22.9811094,15.9598372 C23.5999389,15.6667074 24.3775471,14.9827379 25.3139338,13.9079288 C25.794341,13.3625852 26.2747481,12.7030433 26.7551552,11.9293028" id="Fill-6" fill="#830F29"></path>
                        <path d="M34.4253232,11.782799 C34.5474606,11.8642239 34.5393181,12.0148601 34.4008957,12.2347074 C32.3896997,15.3779135 30.9606921,16.9492112 30.1138728,16.9492112 C29.8614555,16.9492112 29.6088346,16.7863613 29.3566209,16.4606616 C29.1367735,16.1675318 29.0268499,15.9151145 29.0268499,15.7034097 L29.0268499,15.6179135 C28.171888,16.4484478 27.544916,16.863715 27.1459338,16.863715 C26.8039491,16.863715 26.482117,16.7334351 26.1810483,16.4728753 C25.7332112,16.0901781 25.5092926,15.6667684 25.5092926,15.2026463 C25.5092926,13.8998473 26.0059847,12.6703308 26.999369,11.5140967 C28.1963155,10.1217303 29.1571298,9.42554707 29.8818117,9.42554707 C30.2400814,9.42554707 30.5413537,9.67796438 30.7856285,10.182799 C30.8833384,10.3702799 30.9444071,10.5369975 30.9688346,10.6835623 C31.0014046,10.9604071 31.0095471,11.0908906 30.9932621,11.074402 C30.5535674,10.6917048 30.0080204,10.777201 29.3566209,11.3308906 C28.8517863,11.7624427 28.3469517,12.3977608 27.842117,13.2362341 C27.4919898,13.9039186 27.2517863,14.6123155 27.1215064,15.3614249 C27.0726514,15.6056997 27.0928041,15.7970483 27.1825751,15.9354707 C27.2558575,16.0494656 27.3576387,16.1064631 27.4879186,16.1064631 C27.9276132,16.1064631 28.5138728,15.6667684 29.2466972,14.7873791 C29.2548397,14.7794402 29.2629822,14.7710941 29.2711247,14.7629517 C29.3769771,14.5675318 29.5153995,14.2499746 29.6863919,13.8102799 C29.8329567,13.3950127 29.9835929,13.0206616 30.1383003,12.6866158 C30.3500051,12.2145547 30.5169262,11.7870738 30.6390636,11.404173 C30.7204885,11.4286005 30.7978422,11.4611705 30.8711247,11.501883 C31.4736692,11.8194402 31.6528041,12.4221883 31.4085293,13.3095165 C31.3431858,13.5700763 31.2171807,13.9161323 31.0299033,14.3476845 C30.8589109,14.7710941 30.7569262,15.0357252 30.7245598,15.1415776 C30.6594198,15.2802036 30.5942799,15.4469211 30.5291399,15.642341 C30.464,15.8621883 30.4355013,15.964173 30.4436438,15.9476845 C30.3785038,16.1186768 30.3947888,16.204173 30.4924987,16.204173 C30.6960611,16.204173 31.2008957,15.7319084 32.0070025,14.7873791 C32.8049669,13.8267684 33.4970789,12.8738931 34.0833384,11.9293639 C34.1889873,11.7583715 34.3031858,11.7095165 34.4253232,11.782799" id="Fill-8" fill="#830F29"></path>
                        <path d="M40.8865344,11.9170891 C41.0005293,11.7381578 41.1226667,11.6483868 41.2529466,11.6483868 C41.3830229,11.6404478 41.4117252,11.7544427 41.3384427,11.9903715 C41.0697405,12.7803969 40.3939135,13.7574962 39.3109618,14.9216692 C39.2456183,14.9870127 39.082972,15.1618728 38.8224122,15.4468601 C38.6269924,15.6667074 38.4763562,15.8338321 38.3705038,15.9476234 C38.077374,16.2246718 37.8166107,16.4526616 37.5888244,16.6315929 C37.3852621,16.7863003 37.2181374,16.8758677 37.0880611,16.9002952 C36.4448041,17.0224326 36.0376794,16.8190738 35.866687,16.2896081 C35.7608346,15.9720509 35.7486209,15.6056387 35.8300458,15.1903715 C35.9033282,14.7751043 36.5058728,13.7002952 37.6376794,11.965944 C37.531827,12.023145 37.3526921,12.1491501 37.1002748,12.34457 L37.1002748,12.3323562 C36.6198677,12.7476234 36.3511654,12.9796845 36.2941679,13.0285394 C36.2776794,13.045028 35.4432774,13.9895573 33.7903511,15.8621272 C33.4239389,16.2773944 33.1674504,16.6032977 33.0208855,16.8392265 C32.963888,16.9369364 32.8824631,16.9695064 32.7766107,16.9369364 C32.6707583,16.90457 32.5730483,16.8392265 32.4834809,16.7415165 C32.4671959,16.7254351 32.4468397,16.7048753 32.4224122,16.6804478 C32.0967125,16.3549517 31.8809364,16.0086921 31.775084,15.6422799 C31.767145,15.601771 32.625771,14.1605496 34.3521832,11.3186158 C34.8651603,10.4717964 35.2967125,9.73510433 35.6468397,9.10792875 C35.9723359,9.24655471 36.1883155,9.66182188 36.2941679,10.3537303 C36.3674504,10.8422799 36.0822595,11.5671654 35.4392061,12.5277761 C35.3333537,12.7231959 35.1990025,12.9595318 35.0361527,13.236173 C34.8651603,13.5213639 34.7631756,13.6923562 34.7308092,13.7491501 C34.893659,13.5537303 35.0890789,13.317598 35.3170687,13.0407532 C35.553201,12.764112 35.7974758,12.4789211 36.0498931,12.1857913 C36.1394606,12.0801425 36.4081628,11.7908804 36.856,11.3186158 C37.3364071,10.8221272 37.6132519,10.5330687 37.6865344,10.4514402 L37.6865344,10.4758677 C37.8086718,10.3457913 37.9265344,10.2193791 38.0407328,10.0972417 C38.2524377,9.86945547 38.4356438,9.69032061 38.5903511,9.55983715 C38.744855,9.41327226 38.8509109,9.32777608 38.9079084,9.3033486 C39.0379847,9.25449364 39.1643969,9.27505344 39.2865344,9.3644173 C39.4086718,9.46212723 39.5145242,9.58853944 39.6040916,9.74304326 C39.6855165,9.88960814 39.7343715,10.0526616 39.7506565,10.2315929 C39.7585954,10.4109313 39.7221578,10.5613639 39.6407328,10.6835013 C39.5509618,10.7893537 39.412743,10.9809059 39.2254656,11.2575471 C39.0463308,11.5262494 38.8425649,11.8358677 38.6147786,12.1857913 C38.3949313,12.5361221 38.1710127,12.8984631 37.9430229,13.2728142 C37.7150331,13.655715 37.5112672,14.0137812 37.3323359,14.3476234 C37.1613435,14.6735267 37.0269924,14.9542392 36.9292824,15.1903715 C36.8478575,15.3941374 36.8152875,15.5689975 36.8315725,15.7155623 C36.856,15.9437557 36.9496387,16.0209059 37.1124885,15.9476234 C37.7313181,15.6544936 38.5089262,14.9705242 39.445313,13.895715 C39.9257201,13.3503715 40.4061272,12.6908295 40.8865344,11.9170891" id="Fill-10" fill="#830F29"></path>
                        <path d="M41.9247226,12.9308092 C41.9247226,12.9308092 41.7700153,13.3094351 41.4606005,14.066687 C41.3708295,14.2704529 41.3181069,14.5796641 41.3018219,14.9949313 C41.2853333,15.2801221 41.3506768,15.5121832 41.4972417,15.6911145 C41.6519491,15.8785954 41.8715929,15.9353893 42.1567837,15.8621069 C42.4010585,15.805313 42.6331196,15.6872468 42.8531705,15.5079084 C43.2354606,15.1824122 43.6346463,14.8037863 44.0499135,14.3720305 C45.0593791,13.3053639 45.6537812,12.5605293 45.8331196,12.136916 C45.971542,11.8277048 46.1181069,11.7094351 46.2728142,11.7827176 C46.533374,11.904855 45.9754097,12.7681628 44.5995318,14.3720305 C44.0376997,15.0315725 43.6916438,15.426687 43.5613639,15.5567634 C43.1379542,15.9640916 42.7876234,16.277374 42.5109822,16.4972214 C42.2422799,16.7091298 41.9082341,16.8556947 41.5094555,16.936916 C41.2896081,16.9776285 41.0738321,16.936916 40.8621272,16.8147786 C40.4875725,16.6114198 40.2677252,16.464855 40.2025852,16.375084 C39.4779033,15.3572723 39.5351043,14.0750331 40.3735776,12.5277557 C40.8295573,11.6892824 41.4117455,10.915542 42.1201425,10.207145 C42.4295573,9.89793384 42.7674707,9.66974046 43.133883,9.52317557 C43.6875725,9.29538931 44.1189211,9.372743 44.4285394,9.75523664 C44.9415165,10.3740662 45.1491501,11.0010382 45.0514402,11.6361527 C45.0188702,11.8804275 44.8682341,12.1613435 44.5995318,12.4789008 C44.314341,12.829028 44.1189211,13.0938626 44.0132723,13.2727939 L43.7323562,13.736916 C43.5287939,13.8022595 43.365944,13.7002748 43.2438066,13.4315725 C43.1705242,13.2689262 43.1255369,13.1018015 43.1094555,12.9308092 C43.1011094,12.8086718 43.1173944,12.7109618 43.158514,12.6376794 C43.3700153,12.2389008 43.4799389,11.9701985 43.4880814,11.8315725 C43.5043664,11.6282137 43.4514402,11.4205802 43.3293028,11.2086718 C43.2071654,10.9888244 43.1053842,10.923888 43.0239593,11.0132519 C42.8611094,11.1763053 42.5761221,11.6526412 42.1689975,12.4422595 C42.005944,12.7681628 41.9247226,12.9308092 41.9247226,12.9308092" id="Fill-12" fill="#830F29"></path>
                        <path d="M46.553771,14.0667074 C46.4642036,14.2786158 46.4112774,14.5880305 46.3951959,14.9949517 C46.3787074,15.2880814 46.4438473,15.5244173 46.5906158,15.7033486 C46.744916,15.8824835 46.9649669,15.9396845 47.2499542,15.874341 C47.494229,15.8175471 47.7264936,15.6954097 47.946341,15.5079288 C48.3288346,15.1903715 48.7280204,14.8117455 49.1432875,14.3720509 C50.1527532,13.3053842 50.7471552,12.5644173 50.9262901,12.1491501 C51.0647125,11.8315929 51.2112774,11.7094555 51.3661883,11.7827379 C51.6265445,11.9130178 51.0687837,12.7763257 49.6927023,14.3720509 C48.6993181,15.536631 48.0031349,16.2490992 47.6041527,16.5094555 C47.213313,16.7537303 46.8794707,16.8962239 46.602626,16.9369364 C46.3583511,16.9776489 46.0898524,16.9247226 45.7965191,16.7781578 C45.5603868,16.6560204 45.3936692,16.525944 45.2957557,16.3873181 C44.5712774,15.3695064 44.6282748,14.0872672 45.4667481,12.5399898 C45.9227277,11.6931705 46.5051196,10.9155623 47.213313,10.2071654 C47.5227277,9.90609669 47.8606412,9.67790331 48.227257,9.52319593 C48.780743,9.3033486 49.2122952,9.38090585 49.5217099,9.755257 C50.1079695,10.4636539 50.3156031,11.0908295 50.1448142,11.636173 C49.9980458,12.1412112 49.5664936,12.7803969 48.8499542,13.5537303 C47.9542799,14.5228906 47.0708193,15.0519491 46.1997761,15.1415165 C46.0611501,15.1580051 45.9227277,15.1132214 45.7845089,15.0071654 C45.6377405,14.9015165 45.6945344,14.836173 45.9555013,14.8117455 C46.5494962,14.7628906 47.1400305,14.4170382 47.7264936,13.7735776 C48.2066972,13.2606005 48.6138219,12.6460458 48.9478677,11.9293028 C49.0777405,11.6445191 49.045374,11.3391756 48.8499542,11.0132723 C48.6708193,10.7038575 48.5283257,10.6022799 48.4226768,10.7079288 C48.0560611,11.0824835 47.6692926,11.6648753 47.2621679,12.4544936 C47.0993181,12.7803969 46.8633893,13.317598 46.553771,14.0667074" id="Fill-14" fill="#830F29"></path>
                        <g id="Group-18" transform="translate(53.740458, 0.171603)" fill="#830F29">
                            <path d="M17.7047939,5.73630534 C16.7032672,6.16806107 15.7505954,6.36348092 14.8467786,6.32256489 C13.6011807,6.26577099 12.4691705,6.00928244 11.4513588,5.55309924 C11.3943613,5.52073282 11.3821476,5.51238677 11.4149211,5.52867176 C11.3902901,5.55309924 11.3658626,5.57365903 11.3414351,5.58974046 C10.168916,6.88439695 9.41980662,7.82912977 9.09410687,8.42332824 C8.72769466,8.98516031 8.41034097,9.65691603 8.14163868,10.4385954 C8.10051908,10.5527939 8.0274402,10.7439389 7.92158779,11.0126412 C7.82387786,11.256916 7.75079898,11.4523359 7.70174046,11.5989008 C7.44118066,12.4050076 7.22560814,13.1909618 7.05461578,13.9561527 C7.0220458,14.1110636 6.96911959,14.3512672 6.89563359,14.6767634 C6.81420865,14.9943206 6.7572112,15.2347277 6.72484478,15.397374 C6.73278372,15.3650076 6.70021374,15.5887226 6.6269313,16.0691298 C6.56179135,16.4683155 6.50072265,16.8467379 6.44392875,17.2050076 C6.41950127,17.34343 6.39487023,17.4737099 6.37044275,17.5958473 C6.32973028,17.7749822 6.24016285,17.8686209 6.10174046,17.8767634 C5.98754198,17.8849059 5.88189313,17.8236336 5.78418321,17.6935573 C5.76769466,17.6609873 5.74774555,17.616 5.72331807,17.5592061 C5.69889059,17.4859237 5.67833079,17.4370687 5.66224936,17.4126412 C5.62133333,17.3393588 5.51548092,17.1480102 5.34448855,16.8385954 C5.21420865,16.6024631 5.10835623,16.4111145 5.02713486,16.2645496 C4.85614249,15.9390534 4.62387786,15.6660763 4.33095165,15.446229 C4.21675318,15.3650076 4.1923257,15.255084 4.25746565,15.116458 C4.46082443,14.6199695 4.73787277,13.7851603 5.08820356,12.6126412 C5.41369975,11.5298931 5.70682952,10.6993588 5.96759288,10.1210382 C6.67578626,8.59045293 7.57553181,7.21844275 8.66682952,6.00500763 C9.00046819,5.63065649 9.51344529,5.20704326 10.2055573,4.73477863 C7.98265649,3.09019847 6.42336896,2.00317557 5.52789822,1.47370992 C4.50194402,0.863022901 3.56942494,0.773659033 2.73074809,1.20500763 C2.15263104,1.50648346 1.71700763,1.96225954 1.42408142,2.57294656 C1.35059542,2.71951145 1.29359796,3.06577099 1.25308906,3.6111145 C1.17960305,4.55584733 1.50937405,5.44317557 2.24219847,6.27370992 C3.21115522,7.37294656 3.77705852,8.13019847 3.94011196,8.54546565 C4.22489567,9.27829008 4.31853435,9.91340458 4.22102799,10.4508092 C4.15548092,10.8337099 4.04983206,11.0535573 3.90326718,11.1103511 C3.79741476,11.1592061 3.71578626,11.1390534 3.65899237,11.0492824 C3.65084987,11.024855 3.62235115,10.9637863 3.57349618,10.8660763 C3.48392875,10.687145 3.34143511,10.4630229 3.14601527,10.1943206 C2.90967939,9.87676336 2.75537913,9.65691603 2.68189313,9.53477863 C2.69817812,9.55920611 2.47833079,9.23778117 2.02235115,8.56989313 C1.62336896,7.99197964 1.29359796,7.45050382 1.03324173,6.94546565 C0.21064631,5.35767939 -0.0212111959,3.96958779 0.337058524,2.78058015 C0.361486005,2.71564377 0.426422392,2.53243766 0.532478372,2.23096183 C0.703267176,1.75055471 1.06967939,1.2581374 1.63151145,0.753099237 C2.16077354,0.281038168 2.97095165,0.0408346056 4.0620458,0.0324885496 C5.2182799,0.0162035623 6.23202036,0.281038168 7.10326718,0.826381679 C8.81319084,1.88510941 11.2274402,3.26505852 14.3460153,4.96683969 C15.1358372,5.39859542 16.0152265,5.45152163 16.9841832,5.12561832 C17.7332926,4.86526209 18.2055573,4.58027481 18.4009771,4.27065649 L18.5597557,4.34393893 C19.0645903,4.80012214 18.7796031,5.26424427 17.7047939,5.73630534" id="Fill-16"></path>
                        </g>
                        <path d="M70.8100967,11.782799 C70.9324377,11.8642239 70.9240916,12.0148601 70.7856692,12.2347074 C68.7744733,15.3779135 67.3452621,16.9492112 66.4986463,16.9492112 C66.246229,16.9492112 65.9938117,16.7863613 65.741598,16.4606616 C65.5217506,16.1675318 65.4116234,15.9151145 65.4116234,15.7034097 L65.4116234,15.6179135 C64.5566616,16.4484478 63.929486,16.863715 63.5307074,16.863715 C63.1889262,16.863715 62.8668906,16.7334351 62.5658219,16.4728753 C62.1179847,16.0901781 61.8940662,15.6667684 61.8940662,15.2026463 C61.8940662,13.8998473 62.3907583,12.6703308 63.3843461,11.5140967 C64.5810891,10.1217303 65.5416997,9.42554707 66.2667888,9.42554707 C66.6246514,9.42554707 66.9261272,9.67796438 67.170402,10.182799 C67.2683155,10.3702799 67.3291807,10.5369975 67.3538117,10.6835623 C67.3861781,10.9604071 67.3943206,11.0908906 67.3782392,11.074402 C66.938341,10.6917048 66.3927939,10.777201 65.741598,11.3308906 C65.2363562,11.7624427 64.7317252,12.3977608 64.2268906,13.2362341 C63.8765598,13.9039186 63.6365598,14.6123155 63.5062799,15.3614249 C63.4574249,15.6056997 63.4775776,15.7970483 63.5673486,15.9354707 C63.640631,16.0494656 63.7424122,16.1064631 63.8726921,16.1064631 C64.3123868,16.1064631 64.8986463,15.6667684 65.6316743,14.7873791 C65.6396132,14.7794402 65.6477557,14.7710941 65.6561018,14.7629517 C65.7615471,14.5675318 65.900173,14.2499746 66.0711654,13.8102799 C66.2177303,13.3950127 66.3683664,13.0206616 66.5230738,12.6866158 C66.7345751,12.2145547 66.9016997,11.7870738 67.0238372,11.404173 C67.1052621,11.4286005 67.1828193,11.4611705 67.2558982,11.501883 C67.8584427,11.8194402 68.0375776,12.4221883 67.7935064,13.3095165 C67.7279593,13.5700763 67.6019542,13.9161323 67.4146768,14.3476845 C67.2436845,14.7710941 67.1416997,15.0357252 67.1093333,15.1415776 C67.0441934,15.2802036 66.9790534,15.4469211 66.9139135,15.642341 C66.8487735,15.8621883 66.8200712,15.964173 66.8284173,15.9476845 C66.7630738,16.1186768 66.7795623,16.204173 66.8774758,16.204173 C67.0808346,16.204173 67.5856692,15.7319084 68.3917761,14.7873791 C69.1897405,13.8267684 69.8818524,12.8738931 70.468112,11.9293639 C70.5739644,11.7583715 70.6879593,11.7095165 70.8100967,11.782799" id="Fill-19" fill="#830F29"></path>
                        <path d="M75.0970382,7.20264631 C75.1703206,7.01536896 75.1458931,6.81180662 75.0239593,6.59195929 C74.9097608,6.36396947 74.7998372,6.34361323 74.6941883,6.53089059 C74.5392774,6.81608142 74.3967837,7.0886514 74.2665038,7.3492112 C74.0792265,7.74819338 73.2894046,9.33597964 71.8970382,12.11257 C72.4832977,11.4206616 73.0084885,10.7242748 73.4728142,10.0240204 C74.0668092,9.12834606 74.4132723,8.59094148 74.5107786,8.41180662 C74.8120509,7.84997455 75.0074707,7.44692112 75.0970382,7.20264631 M71.3354097,13.2362341 L70.0649771,15.7278372 C70.0405496,15.8825445 70.0690483,16.0291094 70.1504733,16.1675318 C70.3214656,16.3222392 70.6227379,16.253028 71.0544936,15.9598982 C71.4453333,15.6911959 71.844112,15.31257 72.2514402,14.8240204 C73.040855,13.8634097 73.7290992,12.9107379 74.3153588,11.9660051 C74.4132723,11.8031552 74.5555623,11.7787277 74.7430433,11.8927226 C74.7916947,11.9252926 74.804112,11.9700763 74.7794809,12.0270738 C74.7874198,12.0191349 74.7385649,12.096285 74.6331196,12.2591349 C73.4033995,14.2051908 72.438514,15.4957761 71.7382595,16.1308906 C70.7204478,17.0591349 69.7881323,17.1853435 68.9415165,16.5095165 C68.4283359,16.1023919 68.6117455,15.1334351 69.4909313,13.6026463 C69.9713384,12.755827 70.5126107,11.733944 71.1153588,10.5369975 C71.2619237,10.2275827 71.6364784,9.42147583 72.2390229,8.11867684 C72.7275725,7.05201018 73.106402,6.27847328 73.3749008,5.79806616 C73.5784631,5.42371501 73.6926616,5.21994911 73.7170891,5.18737913 C73.8225344,5.04895674 73.9530178,4.97180662 74.1079288,4.95531807 C74.4089975,4.88203562 74.7385649,5.07745547 75.0970382,5.54157761 C75.3657405,5.89170483 75.5408041,6.19704835 75.622229,6.45760814 C75.7034504,6.7183715 75.7402952,6.94615776 75.7321527,7.14157761 C75.7077252,7.4102799 75.6018728,7.72783715 75.414799,8.09424936 C75.2273181,8.46066158 74.9995318,8.84743003 74.730626,9.25455471 C74.4619237,9.66188295 74.1687939,10.0771501 73.8512366,10.5003562 C73.5336794,10.9156234 73.2324071,11.2985242 72.9474198,11.6484478 C72.9229924,11.6810178 72.5769364,12.0230025 71.9092519,12.674402 C71.7138321,12.8698219 71.5224835,13.0573028 71.3354097,13.2362341" id="Fill-21" fill="#830F29"></path>
                        <g id="Group-25" transform="translate(73.078880, 9.331908)"></g>
                        <path d="M75.0115623,14.0667074 C74.9219949,14.2786158 74.8690687,14.5880305 74.8529873,14.9949517 C74.8364987,15.2880814 74.9016387,15.5244173 75.0484071,15.7033486 C75.2027074,15.8824835 75.4227583,15.9396845 75.7077455,15.874341 C75.9520204,15.8175471 76.184285,15.6954097 76.4041323,15.5079288 C76.786626,15.1903715 77.1858117,14.8117455 77.6010789,14.3720509 C78.6105445,13.3053842 79.2049466,12.5644173 79.3840814,12.1491501 C79.5225038,11.8315929 79.6690687,11.7094555 79.8239796,11.7827379 C80.0843359,11.9130178 79.5265751,12.7763257 78.1504936,14.3720509 C77.1571094,15.536631 76.4609262,16.2490992 76.061944,16.5094555 C75.6711043,16.7537303 75.3372621,16.8962239 75.0604173,16.9369364 C74.8161425,16.9776489 74.5476438,16.9247226 74.2543104,16.7781578 C74.0181781,16.6560204 73.8514606,16.525944 73.7535471,16.3873181 C73.0290687,15.3695064 73.0860662,14.0872672 73.9245394,12.5399898 C74.3805191,11.6931705 74.9629109,10.9155623 75.6711043,10.2071654 C75.9805191,9.90609669 76.3184326,9.67790331 76.6850483,9.52319593 C77.2385344,9.3033486 77.6700865,9.38090585 77.9795013,9.755257 C78.5657608,10.4636539 78.7733944,11.0908295 78.6026056,11.636173 C78.4558372,12.1412112 78.024285,12.7803969 77.3077455,13.5537303 C76.4120712,14.5228906 75.5286107,15.0519491 74.6575674,15.1415165 C74.5189415,15.1580051 74.3805191,15.1132214 74.2423003,15.0071654 C74.0955318,14.9015165 74.1523257,14.836173 74.4132926,14.8117455 C75.0072875,14.7628906 75.5978219,14.4170382 76.184285,13.7735776 C76.6644885,13.2606005 77.0716132,12.6460458 77.405659,11.9293028 C77.5355318,11.6445191 77.5031654,11.3391756 77.3077455,11.0132723 C77.1286107,10.7038575 76.986117,10.6022799 76.8804682,10.7079288 C76.5138524,11.0824835 76.127084,11.6648753 75.7199593,12.4544936 C75.5571094,12.7803969 75.3211807,13.317598 75.0115623,14.0667074" id="Fill-23" fill="#830F29"></path>
                    </g>
                </g>
            </g>
        </g>
    </g>
</svg>
