
<svg width="64px" height="40px" viewBox="0 0 64 40" version="1.1" xmlns="http://www.w3.org/2000/svg" xmlns:xlink="http://www.w3.org/1999/xlink">
    <!-- Generator: Sketch 49.2 (51160) - http://www.bohemiancoding.com/sketch -->
    <desc>Created with Sketch.</desc>
    <defs>
        <polygon id="path-1" points="0 40 64 40 64 0 0 0"></polygon>
    </defs>
    <g id="Page-1" stroke="none" stroke-width="1" fill="none" fill-rule="evenodd">
        <g id="Desktop-1440" transform="translate(-968.000000, -549.000000)">
            <g id="Best-Dating-Sites" transform="translate(950.000000, 500.000000)">
                <g id="Valentime" transform="translate(0.000000, 40.000000)">
                    <g id="VT-logo" transform="translate(18.000000, 9.000000)">
                        <path d="M5.88413382,31.2 L3.6,38.3056978 L1.31586618,31.2 L0,31.2 L2.74501491,39.5765776 C2.87399801,39.9265033 3.07333554,40 3.21801921,40 L3.95932428,40 C4.11414376,40 4.32580325,39.9265033 4.45657502,39.571882 L7.2,31.2 L5.88413382,31.2 Z" id="Fill-1" fill="#274655"></path>
                        <path d="M11.9618888,36.4605234 L9.63791057,36.4605234 L10.7998997,32.8926689 L11.9618888,36.4605234 Z M11.1059925,31.2 L10.4711408,31.2 C10.3253155,31.2 10.1239281,31.2734967 9.99214375,31.6279139 L7.2,40 L8.49457585,40 L9.26542415,37.623608 L12.3345758,37.623608 L13.1052236,40 L14.4,40 L11.6062516,31.6232183 C11.4756707,31.2734967 11.2620476,31.2 11.1059925,31.2 Z" id="Fill-3" fill="#274655"></path>
                        <path d="M17.3294109,37.9578137 L17.3294109,31.2 L16,31.2 L16,37.9565887 C16,39.3126021 16.7099249,40 18.1102434,40 L21.6,40 L21.6,38.779343 L18.1102434,38.779343 C17.5773751,38.779343 17.3294109,38.5184298 17.3294109,37.9578137" id="Fill-5" fill="#274655"></path>
                        <path d="M22.4,33.1484781 L22.4,38.0531552 C22.4164897,39.3450631 23.0895158,40 24.4005526,40 L28,40 L28,38.8369154 L24.4005526,38.8369154 C23.8985313,38.8369154 23.6748001,38.6125464 23.6748001,38.1090943 L23.6748001,36.2851522 L27.2868693,36.2851522 L27.2868693,35.0646993 L23.6748001,35.0646993 L23.6748001,33.1258166 C23.6748001,32.5982739 23.8985313,32.3628805 24.4005526,32.3628805 L28,32.3628805 L28,31.2 L24.4005526,31.2 C23.0895158,31.2 22.4164897,31.8549369 22.4,33.1484781" id="Fill-7" fill="#274655"></path>
                        <path d="M34.7307829,37.9444957 L31.4071447,31.5701459 C31.3333671,31.4013039 31.1663542,31.2 30.7899671,31.2 L29.9080821,31.2 C29.8154548,31.2 29.6,31.2404241 29.6,31.6140408 L29.6,40 L30.8692171,40 L30.8692171,33.2205925 L34.171168,39.5518641 C34.3075754,39.8450409 34.5601216,40 34.9016468,40 L35.6917152,40 C35.764074,40 36,39.9718256 36,39.6082129 L36,31.2 L34.7307829,31.2 L34.7307829,37.9444957 Z" id="Fill-9" fill="#274655"></path>
                        <polygon id="Fill-11" fill="#274655" points="36.8 32.3629075 39.4796466 32.3629075 39.4796466 40 40.7221454 40 40.7221454 32.3629075 43.2 32.3629075 43.2 31.2 36.8 31.2"></polygon>
                        <mask id="mask-2" fill="white">
                            <use xlink:href="#path-1"></use>
                        </mask>
                        <g id="Clip-14"></g>
                        <polygon id="Fill-13" fill="#274655" mask="url(#mask-2)" points="44.8 40 46.4 40 46.4 31.2 44.8 31.2"></polygon>
                        <path d="M56.4972488,31.2 L55.5178887,31.2 C55.1480144,31.2 54.9838914,31.4005692 54.9060127,31.5836268 L52.8052782,38.4962399 L50.6884103,31.5687623 C50.6157102,31.4005692 50.451388,31.2 50.0819121,31.2 L49.1027512,31.2 C49.0117266,31.2 48.8,31.2401138 48.8,31.6123377 L48.8,40 L50.0470559,40 L50.0470559,33.5088877 L51.9529939,39.5593586 C52.0892319,39.8515584 52.3533425,40 52.7379559,40 L52.8618449,40 C53.2464584,40 53.5105689,39.8515584 53.653579,39.5424578 L55.5527449,33.5094986 L55.5527449,40 L56.8,40 L56.8,31.6123377 C56.8,31.2401138 56.5882734,31.2 56.4972488,31.2" id="Fill-15" fill="#274655" mask="url(#mask-2)"></path>
                        <path d="M60.400349,32.3629075 L64,32.3629075 L64,31.2 L60.400349,31.2 C59.0893122,31.2 58.4162862,31.8549521 58.4,33.1485233 L58.4,38.0533142 C58.4162862,39.3450479 59.0893122,40 60.400349,40 L64,40 L64,38.8370925 L60.400349,38.8370925 C59.8985313,38.8370925 59.6748001,38.6125142 59.6748001,38.1092546 L59.6748001,36.2852702 L63.2868693,36.2852702 L63.2868693,35.0645848 L59.6748001,35.0645848 L59.6748001,33.1256571 C59.6748001,32.5981022 59.8985313,32.3629075 60.400349,32.3629075" id="Fill-16" fill="#274655" mask="url(#mask-2)"></path>
                        <path d="M40.5369684,6.54043634 C40.5427561,7.6712661 39.9504196,10.199625 36.0593196,14.7072917 L36.0593196,10.2146675 C34.3687257,9.85750986 33.0946434,8.32907036 33.0946434,6.50283011 C33.0946434,4.41273635 34.7632841,2.71232454 36.8159057,2.71232454 C38.8681282,2.71232454 40.5373676,4.41273635 40.5373676,6.50283011 C40.5373676,6.51543328 40.5365693,6.52783317 40.5365693,6.54023307 L40.5369684,6.54043634 Z M29.706271,16.7801069 L30.7476497,13.5880487 C30.1778651,13.3943258 29.7649459,12.8469009 29.7649459,12.2021064 C29.7649459,11.3963165 30.4083734,10.740545 31.1998851,10.740545 C31.9909976,10.740545 32.6350238,11.3963165 32.6350238,12.2021064 C32.6350238,12.8469009 32.2225037,13.3943258 31.6519208,13.5880487 L32.6934991,16.7801069 L29.706271,16.7801069 Z M26.3404506,10.2146675 L26.3404506,14.7072917 C22.4495501,10.199625 21.8568145,7.6712661 21.8630013,6.54043634 L21.8634004,6.54023307 C21.8634004,6.52783317 21.8626021,6.51543328 21.8626021,6.50283011 C21.8626021,4.41273635 23.5318415,2.71232454 25.584064,2.71232454 C27.6358873,2.71232454 29.3055259,4.41273635 29.3055259,6.50283011 C29.3055259,8.32907036 28.0310444,9.85750986 26.3404506,10.2146675 Z M43.1994891,6.44367651 C43.1839223,4.71988785 42.5137518,3.10200648 41.3127137,1.88702006 C40.1088816,0.670000876 38.5120876,0 36.8159057,0 C35.2901602,0 33.81351,0.556978884 32.6573761,1.56868834 C32.0610481,2.09090686 31.5688979,2.71679664 31.1998851,3.41058092 C30.8312713,2.71679664 30.338722,2.09090686 29.7419948,1.56868834 C28.5866592,0.556978884 27.1098095,0 25.584064,0 C23.8880816,0 22.2910881,0.670000876 21.0874556,1.88702006 C19.8844217,3.10302287 19.2144508,4.72314028 19.2008798,6.44184702 C19.2008798,6.44184702 19.1996823,6.52539385 19.2000815,6.53779374 C19.1775296,13.158931 30.2882297,22.4444195 30.7618195,22.8365408 L31.1998851,23.2 L31.6383498,22.8365408 C32.1113409,22.4444195 43.2222406,13.1593376 43.1998882,6.53779374 C43.2002874,6.52620696 43.1994891,6.44367651 43.1994891,6.44367651 Z" id="Fill-17" fill="#E8573A" mask="url(#mask-2)"></path>
                    </g>
                </g>
            </g>
        </g>
    </g>
</svg>
