
<svg width="10px" height="10px" viewBox="0 0 10 10" version="1.1" xmlns="http://www.w3.org/2000/svg" xmlns:xlink="http://www.w3.org/1999/xlink">
    <!-- Generator: Sketch 49.2 (51160) - http://www.bohemiancoding.com/sketch -->
    <desc>Created with Sketch.</desc>
    <defs>
        <linearGradient x1="50%" y1="0%" x2="50%" y2="100%" id="linearGradient-1">
            <stop stop-color="#F1F1F1" offset="0%"></stop>
            <stop stop-color="#F8C41C" offset="100%"></stop>
        </linearGradient>
    </defs>
    <g id="Page-1" stroke="none" stroke-width="1" fill="none" fill-rule="evenodd">
        <g id="Desktop-1440" transform="translate(-1134.000000, -867.000000)" fill="url(#linearGradient-1)" fill-rule="nonzero">
            <g id="Best-Dating-Sites" transform="translate(950.000000, 500.000000)">
                <g id="LoveSwans" transform="translate(0.000000, 340.000000)">
                    <g id="star-rate" transform="translate(135.000000, 27.000000)">
                        <path d="M54.4827932,0.313927365 L55.6106665,2.70363604 C55.6890982,2.86984251 55.8407468,2.98500919 56.0161752,3.01161967 L58.5382977,3.39485426 C58.980102,3.46203483 59.1563648,4.02957973 58.8367972,4.35523098 L57.0117993,6.21534741 C56.8849735,6.34469181 56.8269841,6.53118331 56.8570218,6.71374868 L57.2877705,9.34033428 C57.3632819,9.80034666 56.9014525,10.1510816 56.5063735,9.93405343 L54.2506269,8.69404852 C54.0937635,8.60789163 53.9062365,8.60789163 53.7493731,8.69404852 L51.4936265,9.93405343 C51.0985475,10.1512997 50.6367181,9.80034666 50.7122295,9.34033428 L51.1429782,6.71374868 C51.1730159,6.53118331 51.1150265,6.34469181 50.9882007,6.21534741 L49.1632028,4.35523098 C48.8436352,4.02936161 49.019898,3.46181671 49.4617023,3.39485426 L51.9838248,3.01161967 C52.1592532,2.98500919 52.3109018,2.86984251 52.3893335,2.70363604 L53.5172068,0.313927365 C53.7145377,-0.104642455 54.2852537,-0.104642455 54.4827932,0.313927365 Z" id="Shape-Copy-15"></path>
                    </g>
                </g>
            </g>
        </g>
    </g>
</svg>
