<?xml version="1.0" encoding="utf-8"?>
<!-- Generator: Adobe Illustrator 22.1.0, SVG Export Plug-In . SVG Version: 6.00 Build 0)  -->
<svg version="1.1" id="Capa_1" xmlns="http://www.w3.org/2000/svg" xmlns:xlink="http://www.w3.org/1999/xlink" x="0px" y="0px"
	 viewBox="0 0 512 324" style="enable-background:new 0 0 512 324;" xml:space="preserve">
<style type="text/css">
	.st0{fill:#FFFFFF;}
</style>
<g>
	<g>
		<path class="st0" d="M499.5,226.7L285.9,12.8C277.4,4.7,267.4,0.6,256,0.6c-11.6,0-21.5,4.1-29.6,12.2L12.5,226.7
			C4.2,235.1,0,245,0,256.6c0,11.8,4.2,21.7,12.5,29.6l24.6,24.6c7.9,8.3,17.7,12.5,29.6,12.5c11.8,0,21.7-4.2,29.6-12.5L256,151.5
			l159.7,159.4c7.9,8.3,17.7,12.5,29.6,12.5c11.6,0,21.6-4.2,29.9-12.5l24.6-24.6c8.1-8.1,12.2-18,12.2-29.6
			C512,245,507.8,235.1,499.5,226.7z"/>
	</g>
</g>
</svg>
